<svg width="521" height="521" viewBox="0 0 521 521" fill="none" xmlns="http://www.w3.org/2000/svg">
<rect width="521" height="521" fill="#8B4513"/>
<mask id="mask0_3_21" style="mask-type:alpha" maskUnits="userSpaceOnUse" x="0" y="0" width="521" height="521">
<rect width="521" height="521" fill="#8B4513"/>
</mask>
<g mask="url(#mask0_3_21)">
<path d="M521 521H0V0H521V521ZM349.862 8.33301C326.752 5.56984 311.291 10.0963 296.312 15.8623C281.34 21.6253 266.918 28.5908 245.751 30.832C228.867 32.6197 212.462 27.78 196.887 23.0137C181.365 18.2635 166.612 13.5619 153.22 15.8359C120.626 21.3707 70.0061 43.5079 31.9238 88.0039C20.0457 101.883 13.5644 111.088 10.3213 118.584C7.06156 126.119 7.08137 131.908 8.12109 138.902C9.16019 145.893 11.1969 154.012 12.0469 166.41C12.8955 178.79 12.5545 195.408 8.80957 219.251C7.37984 228.354 8.94994 239.309 11.9619 249.965C14.9763 260.629 19.4482 271.039 23.8652 279.07C29.3201 288.988 33.1842 304.039 34.7432 319.753C36.3018 335.464 35.5491 351.769 31.8242 364.186C28.0639 376.72 26.4346 386.498 24.7461 397.817C23.0581 409.133 21.3106 421.993 17.3145 440.725C15.3045 450.146 15.2018 457.532 16.4463 463.517C17.6923 469.508 20.2835 474.071 23.6162 477.848C26.9413 481.616 31.0011 484.598 35.1699 487.438C39.354 490.287 43.6327 492.983 47.4824 496.212C51.4448 499.535 57.0651 501.809 63.7402 503.209C70.421 504.61 78.1954 505.142 86.502 504.954C103.115 504.578 121.91 501.319 138.448 496.308C154.869 491.332 177.303 490.079 200.165 490.704C223.015 491.328 246.246 493.826 264.234 496.324C282.228 498.823 304.073 503.068 325.347 506.572C346.594 510.072 367.264 512.831 382.819 512.329C398.417 511.826 423.239 504.419 446.073 494.034C457.499 488.838 468.447 482.887 477.516 476.663C486.575 470.446 493.799 463.931 497.729 457.593C505.55 444.977 507.553 430.866 507.303 415.82C507.053 400.809 504.547 384.728 503.302 368.291C502.052 351.791 500.426 333.78 499.239 319.102C498.646 311.759 498.162 305.248 497.889 300.169C497.614 295.066 497.557 291.468 497.798 289.905C498.3 286.642 502.051 255.253 505.676 221.82C509.299 188.398 512.804 152.864 512.804 141.329C512.804 135.504 511.13 127.197 508.282 117.67C505.432 108.131 501.392 97.3307 496.636 86.5029C487.129 64.8627 474.726 43.0479 463.164 30.9834C451.533 18.8464 434.624 14.5832 414.978 12.6436C405.148 11.6732 394.6 11.2819 383.654 10.79C372.702 10.2979 361.342 9.70562 349.862 8.33301Z" fill="#5C3317" fill-opacity="0.6"/>
</g>
<path d="M42 98H478" stroke="#2E1A12" stroke-opacity="0.65" stroke-width="6" stroke-linecap="round"/>
<path d="M86 163L434 163" stroke="#2E1A12" stroke-opacity="0.65" stroke-width="6" stroke-linecap="round"/>
<path d="M98 228L421 228" stroke="#2E1A12" stroke-opacity="0.65" stroke-width="6" stroke-linecap="round"/>
<path d="M42 293H478" stroke="#2E1A12" stroke-opacity="0.65" stroke-width="6" stroke-linecap="round"/>
<path d="M104 358L416 358" stroke="#2E1A12" stroke-opacity="0.65" stroke-width="6" stroke-linecap="round"/>
<path d="M42 423H478" stroke="#2E1A12" stroke-opacity="0.65" stroke-width="6" stroke-linecap="round"/>
</svg>
