<svg width="521" height="521" viewBox="0 0 521 521" fill="none" xmlns="http://www.w3.org/2000/svg">
<rect width="521" height="521" fill="#A66E3E"/>
<path d="M122.004 116.618C122.534 115.859 123.549 115.618 124.364 116.057C125.174 116.494 125.532 117.466 125.198 118.324L119.121 133.953L105.18 163.998C104.142 166.235 101.346 167.009 99.3055 165.624L98.2103 164.88C96.5877 163.779 96.0028 161.664 96.8291 159.885L106.729 138.577C106.828 138.365 106.944 138.163 107.078 137.971L122.004 116.618Z" fill="#EADBBE"/>
<path d="M199.311 119.642C199.757 118.831 200.74 118.482 201.597 118.831C202.45 119.177 202.91 120.105 202.671 120.994L198.316 137.187L187.698 168.561C186.908 170.897 184.212 171.968 182.033 170.811L180.864 170.19C179.132 169.27 178.323 167.23 178.952 165.373L186.495 143.122C186.57 142.9 186.665 142.686 186.777 142.481L199.311 119.642Z" fill="#EADBBE"/>
<path d="M255.219 186.547C255.362 185.632 256.167 184.969 257.092 185.005C258.012 185.041 258.76 185.757 258.838 186.674L260.255 203.382L260.95 236.497C261.002 238.963 258.832 240.887 256.39 240.541L255.079 240.355C253.137 240.08 251.682 238.438 251.642 236.477L251.16 212.986C251.156 212.753 251.171 212.519 251.207 212.288L255.219 186.547Z" fill="#EADBBE"/>
<path d="M145.318 315.264C146.065 314.717 147.103 314.816 147.733 315.495C148.358 316.169 148.384 317.205 147.791 317.909L136.998 330.742L114.11 354.684C112.406 356.467 109.51 356.297 108.025 354.328L107.228 353.271C106.047 351.705 106.176 349.514 107.532 348.097L123.776 331.122C123.938 330.953 124.114 330.799 124.302 330.661L145.318 315.264Z" fill="#EADBBE"/>
<path d="M65.4117 367.51C65.5953 366.602 66.4296 365.976 67.3521 366.054C68.2692 366.131 68.985 366.88 69.0214 367.799L69.685 384.555L68.8886 417.667C68.8293 420.133 66.5743 421.958 64.1504 421.502L62.8496 421.257C60.9223 420.895 59.542 419.188 59.5901 417.228L60.1668 393.74C60.1726 393.506 60.1988 393.273 60.2451 393.044L65.4117 367.51Z" fill="#EADBBE"/>
<path d="M66.0763 47.0999C66.0732 46.1741 66.7643 45.393 67.6835 45.2831C68.5973 45.1739 69.4493 45.7626 69.6703 46.656L73.6968 62.9342L79.5896 95.5274C80.0285 97.9545 78.1875 100.197 75.7214 100.239L74.398 100.261C72.4372 100.294 70.7414 98.9012 70.3935 96.9713L66.2249 73.8486C66.1835 73.6187 66.1622 73.3856 66.1615 73.152L66.0763 47.0999Z" fill="#EADBBE"/>
<path d="M52.3114 195.642C52.7568 194.831 53.7396 194.482 54.5972 194.831C55.4497 195.177 55.9103 196.105 55.6713 196.994L51.3164 213.187L40.6983 244.561C39.9076 246.897 37.2116 247.968 35.0333 246.811L33.8642 246.19C32.1323 245.27 31.3226 243.23 31.9522 241.373L39.4955 219.122C39.5705 218.9 39.6647 218.686 39.7771 218.481L52.3114 195.642Z" fill="#EADBBE"/>
<path d="M486.389 42.9904C487.052 42.3444 488.094 42.2977 488.812 42.8818C489.526 43.4624 489.696 44.4841 489.207 45.2642L480.311 59.4784L460.989 86.3801C459.55 88.3834 456.659 88.6199 454.913 86.877L453.977 85.9416C452.589 84.5559 452.411 82.3685 453.556 80.7763L467.272 61.6999C467.408 61.5102 467.561 61.3329 467.728 61.1699L486.389 42.9904Z" fill="#EADBBE"/>
<path d="M469.312 368.642C469.757 367.831 470.74 367.482 471.597 367.831C472.45 368.177 472.91 369.105 472.671 369.994L468.317 386.187L457.698 417.561C456.908 419.897 454.212 420.968 452.033 419.811L450.864 419.19C449.132 418.27 448.323 416.23 448.952 414.373L456.496 392.122C456.571 391.9 456.665 391.686 456.777 391.481L469.312 368.642Z" fill="#EADBBE"/>
<path d="M274.311 344.642C274.757 343.831 275.74 343.482 276.597 343.831C277.45 344.177 277.91 345.105 277.671 345.994L273.316 362.187L262.698 393.561C261.908 395.897 259.212 396.968 257.033 395.811L255.864 395.19C254.132 394.27 253.323 392.23 253.952 390.373L261.495 368.122C261.57 367.9 261.665 367.686 261.777 367.481L274.311 344.642Z" fill="#EADBBE"/>
<path d="M432.312 288.642C432.757 287.831 433.74 287.482 434.597 287.831C435.45 288.177 435.91 289.105 435.671 289.994L431.317 306.187L420.698 337.561C419.908 339.897 417.212 340.968 415.033 339.811L413.864 339.19C412.132 338.27 411.323 336.23 411.952 334.373L419.496 312.122C419.571 311.9 419.665 311.686 419.777 311.481L432.312 288.642Z" fill="#EADBBE"/>
<path d="M378.027 110.516C378.197 109.606 379.022 108.968 379.946 109.032C380.864 109.096 381.591 109.834 381.64 110.753L382.547 127.497L382.232 160.617C382.209 163.084 379.98 164.941 377.55 164.521L376.246 164.295C374.314 163.96 372.909 162.274 372.928 160.313L373.164 136.819C373.166 136.586 373.189 136.353 373.232 136.123L378.027 110.516Z" fill="#EADBBE"/>
<path d="M347.241 42.5117C347.419 41.6031 348.25 40.9719 349.172 41.0436C350.09 41.1149 350.811 41.8587 350.853 42.778L351.624 59.529L351.041 92.6456C350.997 95.1116 348.754 96.9512 346.327 96.5108L345.025 96.2745C343.095 95.9244 341.704 94.2271 341.739 92.2663L342.165 68.7747C342.169 68.5411 342.194 68.3084 342.239 68.0791L347.241 42.5117Z" fill="#EADBBE"/>
<path d="M130.311 414.642C130.757 413.831 131.74 413.482 132.597 413.831C133.45 414.177 133.91 415.105 133.671 415.994L129.316 432.187L118.698 463.561C117.908 465.897 115.212 466.968 113.033 465.811L111.864 465.19C110.132 464.27 109.323 462.23 109.952 460.373L117.495 438.122C117.57 437.9 117.665 437.686 117.777 437.481L130.311 414.642Z" fill="#EADBBE"/>
<path d="M425.798 415.971C426.353 415.23 427.375 415.022 428.175 415.488C428.971 415.951 429.296 416.934 428.935 417.78L422.349 433.202L407.43 462.773C406.319 464.975 403.499 465.657 401.505 464.206L400.435 463.427C398.849 462.273 398.334 460.14 399.218 458.389L409.812 437.417C409.917 437.209 410.04 437.01 410.18 436.823L425.798 415.971Z" fill="#EADBBE"/>
<path d="M354.992 347.642C355.092 346.721 355.866 346.022 356.791 346.015C357.712 346.008 358.493 346.688 358.613 347.6L360.804 364.225L363.036 397.271C363.202 399.732 361.124 401.756 358.668 401.523L357.35 401.398C355.398 401.213 353.868 399.64 353.736 397.684L352.165 374.241C352.15 374.008 352.154 373.774 352.18 373.542L354.992 347.642Z" fill="#EADBBE"/>
<path d="M309.694 389.804C309.749 388.88 310.487 388.144 311.411 388.091C312.33 388.039 313.144 388.679 313.309 389.584L316.318 406.081L320.177 438.977C320.465 441.427 318.488 443.55 316.024 443.439L314.702 443.379C312.743 443.291 311.137 441.795 310.909 439.848L308.183 416.511C308.156 416.279 308.149 416.045 308.163 415.812L309.694 389.804Z" fill="#EADBBE"/>
<path d="M98.1987 231.554C98.443 230.661 99.3176 230.093 100.233 230.233C101.143 230.372 101.806 231.167 101.781 232.087L101.313 248.849L98.2864 281.832C98.061 284.288 95.6881 285.957 93.3004 285.339L92.019 285.007C90.1205 284.515 88.8584 282.72 89.0386 280.767L91.1975 257.371C91.219 257.138 91.2608 256.908 91.3224 256.683L98.1987 231.554Z" fill="#EADBBE"/>
<path d="M214.311 292.642C214.757 291.831 215.74 291.482 216.597 291.831C217.45 292.177 217.91 293.105 217.671 293.994L213.316 310.187L202.698 341.561C201.908 343.897 199.212 344.968 197.033 343.811L195.864 343.19C194.132 342.27 193.323 340.23 193.952 338.373L201.495 316.122C201.57 315.9 201.665 315.686 201.777 315.481L214.311 292.642Z" fill="#EADBBE"/>
<path d="M391.311 219.642C391.757 218.831 392.74 218.482 393.597 218.831C394.45 219.177 394.91 220.105 394.671 220.994L390.316 237.187L379.698 268.561C378.908 270.897 376.212 271.968 374.033 270.811L372.864 270.19C371.132 269.27 370.323 267.23 370.952 265.373L378.495 243.122C378.57 242.9 378.665 242.686 378.777 242.481L391.311 219.642Z" fill="#EADBBE"/>
<path d="M300.788 275.699C300.703 274.778 301.321 273.938 302.227 273.747C303.128 273.556 304.029 274.067 304.328 274.937L309.79 290.791L318.566 322.729C319.219 325.107 317.586 327.505 315.133 327.766L313.817 327.907C311.867 328.115 310.054 326.878 309.535 324.987L303.321 302.328C303.26 302.103 303.218 301.873 303.196 301.64L300.788 275.699Z" fill="#EADBBE"/>
<path d="M161.923 58.5396C162.158 57.6442 163.027 57.0669 163.944 57.197C164.855 57.3264 165.527 58.1143 165.511 59.0345L165.218 75.8007L162.534 108.814C162.334 111.272 159.979 112.965 157.585 112.372L156.3 112.054C154.397 111.582 153.116 109.8 153.276 107.845L155.191 84.4277C155.21 84.1949 155.25 83.9642 155.309 83.7382L161.923 58.5396Z" fill="#EADBBE"/>
<path d="M242.212 60.2436C242.068 59.329 242.633 58.4521 243.525 58.2041C244.411 57.9576 245.343 58.4103 245.697 59.2599L252.145 74.7392L262.913 106.062C263.714 108.394 262.235 110.89 259.803 111.305L258.499 111.528C256.566 111.858 254.678 110.738 254.042 108.884L246.415 86.6604C246.339 86.4395 246.283 86.2123 246.247 85.9815L242.212 60.2436Z" fill="#EADBBE"/>
<path d="M457.149 186.513C457.324 185.604 458.152 184.97 459.075 185.038C459.993 185.107 460.716 185.848 460.761 186.767L461.591 203.515L461.124 236.634C461.089 239.1 458.852 240.947 456.424 240.515L455.12 240.284C453.19 239.94 451.793 238.248 451.821 236.287L452.165 212.794C452.168 212.56 452.192 212.327 452.236 212.098L457.149 186.513Z" fill="#EADBBE"/>
<path d="M419.912 120.36C419.757 119.447 420.311 118.563 421.2 118.305C422.084 118.047 423.021 118.489 423.385 119.334L430.021 134.734L441.167 165.924C441.997 168.246 440.548 170.759 438.122 171.204L436.82 171.443C434.891 171.797 432.99 170.7 432.331 168.853L424.435 146.724C424.357 146.504 424.298 146.277 424.259 146.047L419.912 120.36Z" fill="#EADBBE"/>
<path d="M340.97 189.051C341.53 188.314 342.553 188.114 343.35 188.585C344.142 189.054 344.461 190.039 344.093 190.883L337.397 206.257L322.267 235.721C321.141 237.915 318.316 238.577 316.332 237.111L315.268 236.325C313.69 235.159 313.19 233.022 314.087 231.278L324.83 210.383C324.937 210.175 325.062 209.977 325.203 209.791L340.97 189.051Z" fill="#EADBBE"/>
<path d="M209.311 414.642C209.757 413.831 210.74 413.482 211.597 413.831C212.45 414.177 212.91 415.105 212.671 415.994L208.316 432.187L197.698 463.561C196.908 465.897 194.212 466.968 192.033 465.811L190.864 465.19C189.132 464.27 188.323 462.23 188.952 460.373L196.495 438.122C196.57 437.9 196.665 437.686 196.777 437.481L209.311 414.642Z" fill="#EADBBE"/>
<path d="M161.284 216.216C161.143 215.301 161.71 214.426 162.603 214.181C163.49 213.937 164.42 214.392 164.772 215.243L171.175 230.741L181.851 262.095C182.646 264.429 181.159 266.92 178.727 267.329L177.421 267.548C175.487 267.873 173.603 266.747 172.972 264.89L165.41 242.645C165.335 242.424 165.279 242.197 165.244 241.966L161.284 216.216Z" fill="#EADBBE"/>
<path d="M300.599 97.8921C301.209 97.1956 302.244 97.0666 303.007 97.592C303.764 98.1143 304.014 99.1193 303.589 99.9356L295.846 114.81L278.714 143.157C277.438 145.267 274.575 145.732 272.697 144.133L271.689 143.274C270.196 142.003 269.845 139.837 270.861 138.159L283.023 118.056C283.144 117.856 283.283 117.668 283.436 117.492L300.599 97.8921Z" fill="#EADBBE"/>
</svg>
