<svg width="521" height="521" viewBox="0 0 521 521" fill="none" xmlns="http://www.w3.org/2000/svg">
<rect width="521" height="521" fill="#A66E3E"/>
<path d="M37.1032 116.091C38.2266 73.9841 67.059 37.6947 107.822 27.0819C118.198 24.3803 128.959 23.4628 139.643 24.3687L324 40L416.589 43.0457C450.571 44.1635 478.445 70.3252 481.713 104.168C482.563 112.97 481.679 121.855 479.111 130.317L472.03 153.65C464.748 177.648 462.268 202.846 464.731 227.803L476 342C476 415.526 415.541 474.675 342.032 473.063L179.5 469.5C97.3144 473.015 29.3638 406.147 31.5579 323.915L37.1032 116.091Z" fill="#D7A86E"/>
</svg>
